<svg xmlns="http://www.w3.org/2000/svg"><symbol id="mechastilts" viewBox="0 0 256 256"><path fill="#fff" d="M60.6 147.8h65.3v23.33H60.6zm65.3-20V85.3L91 127.8h34.9zm4.9-46.9v46.9h67c-7.6-26.1-34.7-45.8-67-46.9zm-7.3.2c-31.1 1.7-57.1 21.2-64.6 46.7h26zm7.3 66.7h10.9v23.33h-10.9z"/><path fill="#fff" d="M128.4 0L.4 64v128l128 64 128-64V64zM233 147.8h-32.1v25.4c0 1.3-.9 2.1-2.4 2.1H58.2c-1.5 0-2.4-.8-2.4-2.1v-25.4H23.7a2.5 2.5 0 0 1-2.4-2.1 2.4 2.4 0 0 1 2.4-2.1h18.2v-13.7c0-1.3 1-2.1 2.5-2.1h9.4c8-29.2 38.4-50.9 74.3-51.1.2-.2.5-.2 1 0 35.9.2 65.8 22.1 73.8 51.1h9.4c1.5 0 2.5.8 2.5 2.1v13.7H233a2.4 2.4 0 0 1 2.4 2.1 2.5 2.5 0 0 1-2.4 2.1z"/><path fill="#fff" d="M46.8 132h163.1v11.56H46.8zm99.8 15.8h49.5v23.33h-49.5z"/></symbol><symbol id="spacebubbles" viewBox="0 0 256 256"><path fill="#fff" d="M92.6 149.9H76.5l-21.3 21.8 3.4 4.2 41-18.7-7-7.3zm-29.7-15.2h132.8v10.93H62.9zm116.1-4.2a45.4 45.4 0 0 0 2.9-16c0-25-23.6-45.4-52.4-45.4s-52.7 20.4-52.7 45.4c0 5.5.5 11.2 2.9 16zm-99.1 40.6h33l-9.9-10.5-23.1 10.5zm83.5-21.2l-7.2 7.3 41.2 18.7 3.4-4-21.3-22h-16.1z"/><path fill="#fff" d="M128 0L0 64v128l128 64 128-64V64zm77.7 173l-5.6 6.9a2.9 2.9 0 0 1-3.2.7l-11.6-5.3H70.5l-11.7 5.3a2.8 2.8 0 0 1-3.1-.7l-5.6-6.9a1.9 1.9 0 0 1 .2-2.5l20.2-20.6h-10a2.2 2.2 0 0 1-2.4-2.1v-15.2a2.2 2.2 0 0 1 2.4-2.1h14.1a51.2 51.2 0 0 1-2.7-16c0-27.1 25.8-49.6 57.6-49.6s57.2 22.5 57.2 49.6a45.9 45.9 0 0 1-2.6 16h14a2.2 2.2 0 0 1 2.5 2.1v15.2a2.2 2.2 0 0 1-2.5 2.1h-12.3l19.9 20.6a2 2 0 0 1 0 2.5z"/><path fill="#fff" d="M143 171.1h33.1L153 160.6l-10 10.5zm-44.1-21.2l20.4 21.2h17.4l20.4-21.2H98.9z"/></symbol><symbol id="superdomes" viewBox="0 0 256 256"><path fill="#fff" d="M120.4 158.8h15.5v13.24h-15.5zm7.8-87.6c-28.4 0-52.2 14.9-53.4 42h106.8c-1.2-27.1-25-42-53.4-42zm-57.3 87.6h15.5v13.24H70.9zm69.9 0h24.3v13.24h-24.3zm-49.5 0h24.3v13.24H91.3z"/><path fill="#fff" d="M128.2 1L.2 65v128l128 64 128-64V65zm76.7 155.7c0 1.3-1 2.1-2.5 2.1h-12.1v13.3h12.1a2.4 2.4 0 0 1 2.5 2.1 2.5 2.5 0 0 1-2.5 2.1H53.9a2.5 2.5 0 0 1-2.4-2.1 2.4 2.4 0 0 1 2.4-2.1H66v-13.3H53.9c-1.5 0-2.4-.8-2.4-2.1v-41.4a2.1 2.1 0 0 1 2.4-2.1h16c1.2-29.8 27-46.2 58.3-46.2s57 16.4 58.2 46.2h16a2.2 2.2 0 0 1 2.5 2.1z"/><path fill="#fff" d="M56.3 154.6H200v-37.2H56.3zm70.7-14.3h59.2a2.2 2.2 0 1 1 0 4.3H127a2.2 2.2 0 1 1 0-4.3zm42.9 18.5h15.5v13.24h-15.5z"/></symbol></svg>