<svg xmlns="http://www.w3.org/2000/svg"><symbol id="mechastilts" viewBox="0 0 256 256"><path d="M128.4 0l128 64v128l-128 64-128-64V64l128-64z"/><path fill="#fff" d="M58.2 175.3c-1.5 0-2.4-.8-2.4-2.1v-25.4H23.7a2.5 2.5 0 0 1-2.4-2.1 2.4 2.4 0 0 1 2.4-2.1h18.2v-13.7c0-1.3 1-2.1 2.5-2.1h9.4c8-29.2 38.4-50.9 74.3-51.1.2-.2.5-.2 1 0 35.9.2 65.8 22.1 73.8 51.1h9.4c1.5 0 2.5.8 2.5 2.1v13.7H233a2.4 2.4 0 0 1 2.4 2.1 2.5 2.5 0 0 1-2.4 2.1h-32.1v25.4c0 1.3-.9 2.1-2.4 2.1zM46.8 132v11.6h163.1V132zm76.7-50.9c-31.1 1.7-57.1 21.2-64.6 46.7h26zm-62.9 66.7v23.3h65.3v-23.3zm65.3-62.5L91 127.8h34.9zm4.9-4.4v46.9h67c-7.6-26.1-34.7-45.8-67-46.9zm0 66.9v23.3h10.9v-23.3zm15.8 0v23.3h49.5v-23.3z"/></symbol><symbol id="spacebubbles" viewBox="0 0 256 256"><path d="M128 0l128 64v128l-128 64L0 192V64L128 0z"/><path fill="#fff" d="M55.7 179.9l-5.6-6.9a1.9 1.9 0 0 1 .2-2.5l20.2-20.6h-10a2.2 2.2 0 0 1-2.4-2.1v-15.2a2.2 2.2 0 0 1 2.4-2.1h14.1a51.2 51.2 0 0 1-2.7-16c0-27.1 25.8-49.6 57.6-49.6s57.2 22.5 57.2 49.6a45.9 45.9 0 0 1-2.6 16h14a2.2 2.2 0 0 1 2.5 2.1v15.2a2.2 2.2 0 0 1-2.5 2.1h-12.3l19.9 20.6a2 2 0 0 1 0 2.5l-5.6 6.9a2.9 2.9 0 0 1-3.2.7l-11.6-5.3H70.5l-11.7 5.3a2.8 2.8 0 0 1-3.1-.7zm36.9-30H76.5l-21.3 21.8 3.4 4.2 41-18.7zm-29.7-15.2v11h132.8v-11zm16.8-4.2H179a45.4 45.4 0 0 0 2.9-16c0-25-23.6-45.4-52.4-45.4s-52.7 20.4-52.7 45.4c0 5.5.5 11.2 2.9 16zm23.3 30.1l-23.1 10.5h33zm-4.1-10.7l20.4 21.2h17.4l20.4-21.2zm54.1 10.7l-10 10.5h33.1zm26.5-10.7h-16.1l-7.2 7.3 41.2 18.7 3.4-4z"/></symbol><symbol id="superdomes" viewBox="0 0 256 256"><path d="M128.2 1l128 64v128l-128 64-128-64V65l128-64z"/><path fill="#fff" d="M53.9 176.3a2.5 2.5 0 0 1-2.4-2.1 2.4 2.4 0 0 1 2.4-2.1H66v-13.3H53.9c-1.5 0-2.4-.8-2.4-2.1v-41.4a2.1 2.1 0 0 1 2.4-2.1h16c1.2-29.8 27-46.2 58.3-46.2s57 16.4 58.2 46.2h16a2.2 2.2 0 0 1 2.5 2.1v41.4c0 1.3-1 2.1-2.5 2.1h-12.1v13.3h12.1a2.4 2.4 0 0 1 2.5 2.1 2.5 2.5 0 0 1-2.5 2.1zm2.4-58.9v37.2H200v-37.2zm14.6 41.4v13.3h15.5v-13.3zm3.9-45.6h106.8c-1.2-27.1-25-42-53.4-42s-52.2 14.9-53.4 42zm16.5 45.6v13.3h24.2v-13.3zm29.1 0v13.3h15.5v-13.3zm65.8-14.2H127a2.2 2.2 0 1 1 0-4.3h59.2a2.2 2.2 0 1 1 0 4.3zm-45.4 14.2v13.3h24.3v-13.3zm29.1 0v13.3h15.6v-13.3z"/></symbol></svg>