<svg xmlns="http://www.w3.org/2000/svg" width="256" height="256" viewBox="0 0 256 256"><path fill="#fff" d="M60.6 147.8h65.3v23.33H60.6zm65.3-20V85.3L91 127.8h34.9zm4.9-46.9v46.9h67c-7.6-26.1-34.7-45.8-67-46.9zm-7.3.2c-31.1 1.7-57.1 21.2-64.6 46.7h26zm7.3 66.7h10.9v23.33h-10.9z"/><path fill="#fff" d="M128.4 0L.4 64v128l128 64 128-64V64zM233 147.8h-32.1v25.4c0 1.3-.9 2.1-2.4 2.1H58.2c-1.5 0-2.4-.8-2.4-2.1v-25.4H23.7a2.5 2.5 0 0 1-2.4-2.1 2.4 2.4 0 0 1 2.4-2.1h18.2v-13.7c0-1.3 1-2.1 2.5-2.1h9.4c8-29.2 38.4-50.9 74.3-51.1.2-.2.5-.2 1 0 35.9.2 65.8 22.1 73.8 51.1h9.4c1.5 0 2.5.8 2.5 2.1v13.7H233a2.4 2.4 0 0 1 2.4 2.1 2.5 2.5 0 0 1-2.4 2.1z"/><path fill="#fff" d="M46.8 132h163.1v11.56H46.8zm99.8 15.8h49.5v23.33h-49.5z"/></svg>