<svg id="Layer_1" data-name="Layer 1" xmlns="http://www.w3.org/2000/svg" width="256" height="256" viewBox="0 0 256 256"><rect x="60.3" y="147.8" width="65.3" height="23.33" fill="#fff"/><polygon points="125.6 127.8 125.6 85.3 90.6 127.8 125.6 127.8" fill="#fff"/><path d="M130.4,80.9v46.9h67C189.9,101.7,162.7,82,130.4,80.9Z" fill="#fff"/><path d="M123.1,81.1c-31,1.7-57,21.2-64.5,46.7H84.5Z" fill="#fff"/><rect x="130.4" y="147.8" width="10.9" height="23.33" fill="#fff"/><path d="M128,0,0,64V192l128,64,128-64V64ZM232.6,147.8h-32v25.4c0,1.3-1,2.1-2.5,2.1H57.8a2.1,2.1,0,0,1-2.4-2.1V147.8h-32a2.6,2.6,0,0,1-2.5-2.1,2.5,2.5,0,0,1,2.5-2.1H41.6V129.9a2.1,2.1,0,0,1,2.4-2.1h9.5c8-29.2,38.3-50.9,74.3-51.1.2-.2.4-.2.9,0,35.9.2,65.8,22.1,73.8,51.1H212a2.1,2.1,0,0,1,2.4,2.1v13.7h18.2a2.4,2.4,0,0,1,2.4,2.1A2.5,2.5,0,0,1,232.6,147.8Z" fill="#fff"/><rect x="46.4" y="132" width="163.1" height="11.56" fill="#fff"/><rect x="146.2" y="147.8" width="49.5" height="23.33" fill="#fff"/></svg>