<svg xmlns="http://www.w3.org/2000/svg" id="Layer_1" width="256" height="256" viewBox="0 0 256 256"><path fill="#fff" d="M68.7 147.8h57.1v23.33H68.7zm57.2-20V85.3l-30.6 42.5h30.6zm4.2-46.9v46.9h58.6c-6.5-26.1-30.3-45.8-58.6-46.9zm-6.4.2a62.7 62.7 0 0 0-56.4 46.7H90zm6.4 66.7h9.6v23.33h-9.6z"/><path fill="#fff" d="M128 0L16 64v128l112 64 112-64V64zm91.5 147.8h-28v25.4a1.9 1.9 0 0 1-2.1 2.1H66.6a1.9 1.9 0 0 1-2.1-2.1v-25.4h-28a2.4 2.4 0 0 1-2.2-2.1 2.3 2.3 0 0 1 2.2-2.1h15.9v-13.7a1.9 1.9 0 0 1 2.1-2.1h8.3a67.2 67.2 0 0 1 65-51.1c.2-.2.4-.2.8 0a66.9 66.9 0 0 1 64.6 51.1h8.3a1.9 1.9 0 0 1 2.1 2.1v13.7h15.9a2.3 2.3 0 0 1 2.2 2.1 2.4 2.4 0 0 1-2.2 2.1z"/><path fill="#fff" d="M56.6 132h142.7v11.56H56.6zm87.3 15.8h43.3v23.33h-43.3z"/></svg>