<svg xmlns="http://www.w3.org/2000/svg" width="256" height="256" viewBox="0 0 256 256"><path d="M128.4 0l128 64v128l-128 64-128-64V64l128-64z"/><path fill="#fff" d="M58.2 175.3c-1.5 0-2.4-.8-2.4-2.1v-25.4H23.7a2.5 2.5 0 0 1-2.4-2.1 2.4 2.4 0 0 1 2.4-2.1h18.2v-13.7c0-1.3 1-2.1 2.5-2.1h9.4c8-29.2 38.4-50.9 74.3-51.1.2-.2.5-.2 1 0 35.9.2 65.8 22.1 73.8 51.1h9.4c1.5 0 2.5.8 2.5 2.1v13.7H233a2.4 2.4 0 0 1 2.4 2.1 2.5 2.5 0 0 1-2.4 2.1h-32.1v25.4c0 1.3-.9 2.1-2.4 2.1zM46.8 132v11.6h163.1V132zm76.7-50.9c-31.1 1.7-57.1 21.2-64.6 46.7h26zm-62.9 66.7v23.3h65.3v-23.3zm65.3-62.5L91 127.8h34.9zm4.9-4.4v46.9h67c-7.6-26.1-34.7-45.8-67-46.9zm0 66.9v23.3h10.9v-23.3zm15.8 0v23.3h49.5v-23.3z"/></svg>