<svg xmlns="http://www.w3.org/2000/svg" width="256" height="256" viewBox="0 0 256 256"><path d="M128 0l128 64v128l-128 64L0 192V64L128 0z"/><path fill="#fff" d="M55.7 179.9l-5.6-6.9a1.9 1.9 0 0 1 .2-2.5l20.2-20.6h-10a2.2 2.2 0 0 1-2.4-2.1v-15.2a2.2 2.2 0 0 1 2.4-2.1h14.1a51.2 51.2 0 0 1-2.7-16c0-27.1 25.8-49.6 57.6-49.6s57.2 22.5 57.2 49.6a45.9 45.9 0 0 1-2.6 16h14a2.2 2.2 0 0 1 2.5 2.1v15.2a2.2 2.2 0 0 1-2.5 2.1h-12.3l19.9 20.6a2 2 0 0 1 0 2.5l-5.6 6.9a2.9 2.9 0 0 1-3.2.7l-11.6-5.3H70.5l-11.7 5.3a2.8 2.8 0 0 1-3.1-.7zm36.9-30H76.5l-21.3 21.8 3.4 4.2 41-18.7zm-29.7-15.2v11h132.8v-11zm16.8-4.2H179a45.4 45.4 0 0 0 2.9-16c0-25-23.6-45.4-52.4-45.4s-52.7 20.4-52.7 45.4c0 5.5.5 11.2 2.9 16zm23.3 30.1l-23.1 10.5h33zm-4.1-10.7l20.4 21.2h17.4l20.4-21.2zm54.1 10.7l-10 10.5h33.1zm26.5-10.7h-16.1l-7.2 7.3 41.2 18.7 3.4-4z"/></svg>