<svg xmlns="http://www.w3.org/2000/svg" id="Layer_1" width="256" height="256" viewBox="0 0 256 256"><path fill="#fff" d="M97 149.9H83l-18.7 21.8 3 4.2 35.8-18.7-6.1-7.3zm-25.9-15.2h116.2v10.93H71.1zm101.5-4.2a50.1 50.1 0 0 0 2.5-16c0-25-20.6-45.4-45.8-45.4s-46.1 20.4-46.1 45.4c0 5.5.4 11.2 2.5 16zm-86.7 40.6h28.9l-8.7-10.5-20.2 10.5zm73.1-21.2l-6.4 7.3 36.1 18.7 3-4-18.7-22h-14z"/><path fill="#fff" d="M128 0L16 64v128l112 64 112-64V64zm68 173l-4.9 6.9a2.3 2.3 0 0 1-2.8.7l-10.2-5.3H77.7l-10.2 5.3a2.3 2.3 0 0 1-2.8-.7l-4.9-6.9a2.2 2.2 0 0 1 .2-2.5l17.7-20.6H69a2.1 2.1 0 0 1-2.2-2.1v-15.2a2.1 2.1 0 0 1 2.2-2.1h12.3a57.4 57.4 0 0 1-2.4-16c0-27.1 22.5-49.6 50.4-49.6s50.1 22.5 50.1 49.6a50.8 50.8 0 0 1-2.3 16h12.3a2 2 0 0 1 2.1 2.1v15.2a2 2 0 0 1-2.1 2.1h-10.9l17.5 20.6a2.3 2.3 0 0 1 0 2.5z"/><path fill="#fff" d="M141.2 171.1h28.9l-20.2-10.5-8.7 10.5zm-38.7-21.2l17.8 21.2h15.3l17.9-21.2h-51z"/></svg>