<svg id="Layer_1" data-name="Layer 1" xmlns="http://www.w3.org/2000/svg" width="256" height="256" viewBox="0 0 256 256"><polygon points="92.6 149.9 76.5 149.9 55.2 171.7 58.6 175.9 99.6 157.2 92.6 149.9" fill="#fff"/><rect x="62.9" y="134.7" width="132.8" height="10.93" fill="#fff"/><path d="M179,130.5a45.4,45.4,0,0,0,2.9-16c0-25-23.6-45.4-52.4-45.4S76.8,89.5,76.8,114.5c0,5.5.5,11.2,2.9,16Z" fill="#fff"/><polygon points="79.9 171.1 112.9 171.1 103 160.6 79.9 171.1" fill="#fff"/><polygon points="163.4 149.9 156.2 157.2 197.4 175.9 200.8 171.9 179.5 149.9 163.4 149.9" fill="#fff"/><path d="M128,0,0,64V192l128,64,128-64V64Zm77.7,173-5.6,6.9a2.9,2.9,0,0,1-3.2.7l-11.6-5.3H70.5l-11.7,5.3a2.8,2.8,0,0,1-3.1-.7L50.1,173a1.9,1.9,0,0,1,.2-2.5l20.2-20.6h-10a2.2,2.2,0,0,1-2.4-2.1V132.6a2.2,2.2,0,0,1,2.4-2.1H74.6a51.2,51.2,0,0,1-2.7-16c0-27.1,25.8-49.6,57.6-49.6s57.2,22.5,57.2,49.6a45.9,45.9,0,0,1-2.6,16h14a2.2,2.2,0,0,1,2.5,2.1v15.2a2.2,2.2,0,0,1-2.5,2.1H185.8l19.9,20.6A2,2,0,0,1,205.7,173Z" fill="#fff"/><polygon points="143 171.1 176.1 171.1 153 160.6 143 171.1" fill="#fff"/><polygon points="98.9 149.9 119.3 171.1 136.7 171.1 157.1 149.9 98.9 149.9" fill="#fff"/></svg>