<svg xmlns="http://www.w3.org/2000/svg" width="256" height="256" viewBox="0 0 256 256"><path d="M128.2 1l128 64v128l-128 64-128-64V65l128-64z"/><path fill="#fff" d="M53.9 176.3a2.5 2.5 0 0 1-2.4-2.1 2.4 2.4 0 0 1 2.4-2.1H66v-13.3H53.9c-1.5 0-2.4-.8-2.4-2.1v-41.4a2.1 2.1 0 0 1 2.4-2.1h16c1.2-29.8 27-46.2 58.3-46.2s57 16.4 58.2 46.2h16a2.2 2.2 0 0 1 2.5 2.1v41.4c0 1.3-1 2.1-2.5 2.1h-12.1v13.3h12.1a2.4 2.4 0 0 1 2.5 2.1 2.5 2.5 0 0 1-2.5 2.1zm2.4-58.9v37.2H200v-37.2zm14.6 41.4v13.3h15.5v-13.3zm3.9-45.6h106.8c-1.2-27.1-25-42-53.4-42s-52.2 14.9-53.4 42zm16.5 45.6v13.3h24.2v-13.3zm29.1 0v13.3h15.5v-13.3zm65.8-14.2H127a2.2 2.2 0 1 1 0-4.3h59.2a2.2 2.2 0 1 1 0 4.3zm-45.4 14.2v13.3h24.3v-13.3zm29.1 0v13.3h15.6v-13.3z"/></svg>