<svg xmlns="http://www.w3.org/2000/svg" id="Layer_1" width="256" height="256" viewBox="0 0 256 256"><path fill="#fff" d="M121.4 158.8H135v13.24h-13.6zm6.8-87.6c-24.9 0-45.7 14.9-46.8 42h93.5c-1.1-27.1-21.9-42-46.7-42zM78 158.8h13.6v13.24H78zm61.2 0h21.2v13.24h-21.2zm-43.3 0h21.2v13.24H95.9z"/><path fill="#fff" d="M128.2 1l-112 64v128l112 64 112-64V65zm67.1 155.7a2 2 0 0 1-2.1 2.1h-10.7v13.3h10.7a2.3 2.3 0 0 1 2.1 2.1 2.3 2.3 0 0 1-2.1 2.1h-130a2.3 2.3 0 0 1-2.1-2.1 2.2 2.2 0 0 1 2.1-2.1h10.6v-13.3H63.2a1.9 1.9 0 0 1-2.1-2.1v-41.4a2 2 0 0 1 2.1-2.1h14c1.1-29.8 23.6-46.2 51-46.2s49.9 16.4 50.9 46.2h14.1a2.1 2.1 0 0 1 2.1 2.1z"/><path fill="#fff" d="M65.3 154.6H191v-37.2H65.3zm61.8-14.3h51.8a2.2 2.2 0 1 1 0 4.3h-51.8a2.2 2.2 0 0 1 0-4.3zm37.6 18.5h13.6v13.24h-13.6z"/></svg>