<svg id="Layer_1" data-name="Layer 1" xmlns="http://www.w3.org/2000/svg" width="256" height="256" viewBox="0 0 256 256"><rect x="120.4" y="158.8" width="15.5" height="13.24" fill="#fff"/><path d="M128.2,71.2c-28.4,0-52.2,14.9-53.4,42H181.6C180.4,86.1,156.6,71.2,128.2,71.2Z" fill="#fff"/><rect x="70.9" y="158.8" width="15.5" height="13.24" fill="#fff"/><rect x="140.8" y="158.8" width="24.3" height="13.24" fill="#fff"/><rect x="91.3" y="158.8" width="24.3" height="13.24" fill="#fff"/><path d="M128.2,1,.2,65V193l128,64,128-64V65Zm76.7,155.7c0,1.3-1,2.1-2.5,2.1H190.3v13.3h12.1a2.4,2.4,0,0,1,2.5,2.1,2.5,2.5,0,0,1-2.5,2.1H53.9a2.5,2.5,0,0,1-2.4-2.1,2.4,2.4,0,0,1,2.4-2.1H66V158.8H53.9c-1.5,0-2.4-.8-2.4-2.1V115.3a2.1,2.1,0,0,1,2.4-2.1h16C71.1,83.4,96.9,67,128.2,67s57,16.4,58.2,46.2h16a2.2,2.2,0,0,1,2.5,2.1Z" fill="#fff"/><path d="M56.3,154.6H200V117.4H56.3ZM127,140.3h59.2a2.2,2.2,0,1,1,0,4.3H127a2.2,2.2,0,1,1,0-4.3Z" fill="#fff"/><rect x="169.9" y="158.8" width="15.5" height="13.24" fill="#fff"/></svg>